<svg xmlns="http://www.w3.org/2000/svg" xmlns:xlink="http://www.w3.org/1999/xlink" viewBox="0 0 365.7 86.6"><defs><style>.cls-1{fill:url(#New_Gradient_Swatch);}.cls-10,.cls-2{font-size:80px;font-family:OAF-300, OAF;}.cls-2{fill:#231f20;}.cls-3{letter-spacing:0.05em;}.cls-4{letter-spacing:0em;}.cls-5{letter-spacing:0em;}.cls-6{letter-spacing:-0.02em;}.cls-7{letter-spacing:-0.05em;}.cls-8{letter-spacing:0.03em;}.cls-9{letter-spacing:0.01em;}.cls-11{fill:url(#linear-gradient);}</style><linearGradient id="New_Gradient_Swatch" x1="1.98" y1="67.05" x2="331.19" y2="31.09" gradientUnits="userSpaceOnUse"><stop offset="0.27" stop-color="#ef559b"/><stop offset="0.29" stop-color="#ef5e98"/><stop offset="0.38" stop-color="#f1888b"/><stop offset="0.47" stop-color="#f3aa81"/><stop offset="0.57" stop-color="#f4c579"/><stop offset="0.66" stop-color="#f5d873"/><stop offset="0.76" stop-color="#f6e36f"/><stop offset="0.86" stop-color="#f6e76e"/></linearGradient><linearGradient id="linear-gradient" x1="2.75" y1="62.67" x2="323.39" y2="35.21" gradientUnits="userSpaceOnUse"><stop offset="0.1" stop-color="#ef559b"/><stop offset="0.21" stop-color="#f06b94"/><stop offset="0.59" stop-color="#f3ad80"/><stop offset="0.86" stop-color="#f5d773"/><stop offset="1" stop-color="#f6e76e"/></linearGradient></defs><title>Layer 1</title><g id="Layer_2" data-name="Layer 2"><g id="Layer_1-2" data-name="Layer 1"><path class="cls-1" d="M47.6,25.5s2.4,1.1,6.3,3.3a4.3,4.3,0,0,1,2,5.9l-16,31.4c-7.9-1.7-5-8.7-5-8.7L42,40,23.2,64.5c-4.8.5-4.4-6.3-4.4-6.3a57.5,57.5,0,0,1,3.6-19S9.2,65.1,7.8,67-1,72.2.1,62.8,15.2,32.3,15.2,32.3s2.7-3.8,5.2-3.5a51.4,51.4,0,0,1,9,2.9A3.6,3.6,0,0,1,31,36.2s-1.4,4.3-1.9,6.5c0,0,7.6-11.7,12.1-15.7S47.6,25.5,47.6,25.5Z"/><path class="cls-1" d="M71.9,38.2l-3,4.4A37,37,0,0,1,75,42c2.6-.2,5.2.3,5.8,1.9a8.2,8.2,0,0,1-.4,6.3c-7.4-.8-18.2,2.6-18.2,2.6l-1.6,3.8a40.7,40.7,0,0,1,8.3-1.4c4.4-.3,6.3,3.8,7.2,6.7S73,65.2,73,65.2s-8.4-.1-13.5,1.5-5.9,0-5.9,0a22.1,22.1,0,0,1-3.3-4.1,6.7,6.7,0,0,1,0-7.6L61.4,35.5l.3-1.2s-2.1-1.3-1.3-5c.5-1.4,2.3-1.4,2.3-1.4,1.6-.4,15.7-2,18.4-2s4.7.8,6,3.3A13.6,13.6,0,0,1,88.3,35l-15,1.2Z"/><path class="cls-1" d="M104.7,32.8c-.9,6.2-12.3,22.6-12.3,22.6s1.4-1,7.2-1.5,7.1,5.1,7.1,5.1a148.6,148.6,0,0,1-14.2,7.2c-5.3,2.2-14,.6-10.5-12.5S97.2,26.6,97.2,26.6a2.4,2.4,0,0,1,2.8-.9l3.2,2.3C105.3,30.6,104.7,32.8,104.7,32.8Z"/><path class="cls-1" d="M111.8,43.8c1.8-3.3,6.3-12.7,8-15.5s3.7-1.9,3.7-1.9a26.3,26.3,0,0,1,3.3,1.8c2,1.2.7,4.8.7,4.8C125,41.4,111,67.2,111,67.2a5.6,5.6,0,0,1-3.4-3.3C104.9,56.4,111.8,43.8,111.8,43.8Z"/><path class="cls-1" d="M124.1,48.6c5.4,11.7,16.1,10.3,17.4,10s3.7-3.1,0-4.8-15.8-2.9-15.1-11.6,8-14.1,14.5-15.9,14.6,1.5,16.5,7.3-8.2,12-8.2,12a6.9,6.9,0,0,1-5.6-5c-1.4-4.6,3.6-7.9,3.6-7.9s-8.4,2.4-10.8,7.1,9.4,6.6,13.1,8.9,4.9,10.6-2.1,15.1-20.6,6.4-24-4.8C123.4,59,121.6,51.8,124.1,48.6Z"/><path class="cls-1" d="M154.2,48.6c5.4,11.7,16.1,10.3,17.4,10s3.7-3.1,0-4.8-15.8-2.9-15.2-11.6,8.1-14.1,14.6-15.9,14.6,1.5,16.5,7.3-8.3,12-8.3,12-3.9-.3-5.5-5,3.6-7.9,3.6-7.9-8.5,2.4-10.8,7.1,9.4,6.6,13.1,8.9,4.8,10.6-2.1,15.1-20.7,6.4-24-4.8C153.5,59,151.6,51.8,154.2,48.6Z"/><path class="cls-1" d="M219.4,34.8a125.7,125.7,0,0,0-3.9,13s1.3,0,1.3.8a34.6,34.6,0,0,1-.6,4.9c-.3.7-2.2,1-2.2,1-1,5.3-1.7,9.6-2,10.9-.6,2.9-2.5,1.8-2.5,1.8a24.4,24.4,0,0,1-3.5-2.3,4.5,4.5,0,0,1-1.7-3.1,27.4,27.4,0,0,1,.7-6l-11.9,1.7c-2.4,3.8-3.5,5.4-4.9,7.9s-3.1,1-3.1,1l-3.1-3c-1.8-2.1.6-5.9.6-5.9,5.1-11.3,21.7-29.8,21.7-29.8a3.9,3.9,0,0,1,4.1-1.6s7.6,2.3,10.2,4.1S219.4,34.8,219.4,34.8Zm-9.8-.5s-7.2,7.5-10,13.5c0,0,3.6-.5,6.8-.6C206.4,47.2,208,39.2,209.6,34.3Z"/><path class="cls-1" d="M260.6,38.1s-7.8,29.8-21.2,28.8c-10.2-.8-8.5-11-7.3-11s2.4,3.6,5.3,2.7,5.1-6.5,10.1-18.2l5.3-12.6a3.3,3.3,0,0,1,3.3-1.7,8.9,8.9,0,0,1,4.5.9s1.3.7,1.2,3.7A33,33,0,0,1,260.6,38.1Z"/><path class="cls-1" d="M291.1,34.8a105.1,105.1,0,0,0-3.9,13s1.3,0,1.3.8a34.6,34.6,0,0,1-.6,4.9c-.3.7-2.2,1-2.2,1-1,5.3-1.7,9.6-2,10.9-.6,2.9-2.5,1.8-2.5,1.8a29.1,29.1,0,0,1-3.6-2.3,4.6,4.6,0,0,1-1.6-3.1,27.4,27.4,0,0,1,.7-6l-11.9,1.7c-2.4,3.8-3.5,5.4-4.9,7.9s-3.1,1-3.1,1a41.3,41.3,0,0,1-3.1-3c-1.8-2.1.6-5.9.6-5.9C259.4,46.2,276,27.7,276,27.7a3.9,3.9,0,0,1,4.1-1.6s7.5,2.3,10.2,4.1S291.1,34.8,291.1,34.8Zm-9.9-.5s-7.1,7.5-9.9,13.5c0,0,3.5-.5,6.8-.6A130.9,130.9,0,0,1,281.2,34.3Z"/><path class="cls-1" d="M309.6,38.2l-2.9,4.4a37,37,0,0,1,6.1-.6c2.6-.2,5.2.3,5.7,1.9a7.7,7.7,0,0,1-.4,6.3c-7.3-.8-18.1,2.6-18.1,2.6l-1.6,3.8a39.1,39.1,0,0,1,8.3-1.4c4.4-.3,6.2,3.8,7.2,6.7s-3.1,3.3-3.1,3.3-8.4-.1-13.6,1.5-5.9,0-5.9,0a29.6,29.6,0,0,1-3.3-4.1,7,7,0,0,1,0-7.6l11.2-19.5.3-1.2s-2.1-1.3-1.3-5a2.4,2.4,0,0,1,2.2-1.4c1.6-.4,15.8-2,18.4-2s4.8.8,6,3.3A12.1,12.1,0,0,1,326,35l-14.9,1.2Z"/><path class="cls-1" d="M337.3,29.4l3.7.5s5.3.9,4.1,8.7-.5,10.7-.5,10.7c1.6-4.3,10-21.5,11.7-23.5a2.8,2.8,0,0,1,3.6-.7l4.4,2.1a2.5,2.5,0,0,1,1.3,2.9,371,371,0,0,1-18.4,32.8c-2,3.1-4.6,1.7-4.6,1.7s-1.4-.2-5.5-3.6S335,46,335,46c-6.6,15.9-10.5,23-10.5,23s-7.1-2.4-4.9-10.7,11.1-25.2,11.1-25.2A6.5,6.5,0,0,1,337.3,29.4Z"/><path class="cls-1" d="M47.6,25.5s2.4,1.1,6.3,3.3a4.3,4.3,0,0,1,2,5.9l-16,31.4c-7.9-1.7-5-8.7-5-8.7L42,40,23.2,64.5c-4.8.5-4.4-6.3-4.4-6.3a57.5,57.5,0,0,1,3.6-19S9.2,65.1,7.8,67-1,72.2.1,62.8,15.2,32.3,15.2,32.3s2.7-3.8,5.2-3.5a51.4,51.4,0,0,1,9,2.9A3.6,3.6,0,0,1,31,36.2s-1.4,4.3-1.9,6.5c0,0,7.6-11.7,12.1-15.7S47.6,25.5,47.6,25.5Z"/><path class="cls-1" d="M71.9,38.2l-3,4.4A37,37,0,0,1,75,42c2.6-.2,5.2.3,5.8,1.9a8.2,8.2,0,0,1-.4,6.3c-7.4-.8-18.2,2.6-18.2,2.6l-1.6,3.8a40.7,40.7,0,0,1,8.3-1.4c4.4-.3,6.3,3.8,7.2,6.7S73,65.2,73,65.2s-8.4-.1-13.5,1.5-5.9,0-5.9,0a22.1,22.1,0,0,1-3.3-4.1,6.7,6.7,0,0,1,0-7.6L61.4,35.5l.3-1.2s-2.1-1.3-1.3-5c.5-1.4,2.3-1.4,2.3-1.4,1.6-.4,15.7-2,18.4-2s4.7.8,6,3.3A13.6,13.6,0,0,1,88.3,35l-15,1.2Z"/><path class="cls-1" d="M104.7,32.8c-.9,6.2-12.3,22.6-12.3,22.6s1.4-1,7.2-1.5,7.1,5.1,7.1,5.1a148.6,148.6,0,0,1-14.2,7.2c-5.3,2.2-14,.6-10.5-12.5S97.2,26.6,97.2,26.6a2.4,2.4,0,0,1,2.8-.9l3.2,2.3C105.3,30.6,104.7,32.8,104.7,32.8Z"/><path class="cls-1" d="M111.8,43.8c1.8-3.3,6.3-12.7,8-15.5s3.7-1.9,3.7-1.9a26.3,26.3,0,0,1,3.3,1.8c2,1.2.7,4.8.7,4.8C125,41.4,111,67.2,111,67.2a5.6,5.6,0,0,1-3.4-3.3C104.9,56.4,111.8,43.8,111.8,43.8Z"/><path class="cls-1" d="M124.1,48.6c5.4,11.7,16.1,10.3,17.4,10s3.7-3.1,0-4.8-15.8-2.9-15.1-11.6,8-14.1,14.5-15.9,14.6,1.5,16.5,7.3-8.2,12-8.2,12a6.9,6.9,0,0,1-5.6-5c-1.4-4.6,3.6-7.9,3.6-7.9s-8.4,2.4-10.8,7.1,9.4,6.6,13.1,8.9,4.9,10.6-2.1,15.1-20.6,6.4-24-4.8C123.4,59,121.6,51.8,124.1,48.6Z"/><path class="cls-1" d="M154.2,48.6c5.4,11.7,16.1,10.3,17.4,10s3.7-3.1,0-4.8-15.8-2.9-15.2-11.6,8.1-14.1,14.6-15.9,14.6,1.5,16.5,7.3-8.3,12-8.3,12-3.9-.3-5.5-5,3.6-7.9,3.6-7.9-8.5,2.4-10.8,7.1,9.4,6.6,13.1,8.9,4.8,10.6-2.1,15.1-20.7,6.4-24-4.8C153.5,59,151.6,51.8,154.2,48.6Z"/><path class="cls-1" d="M219.4,34.8a125.7,125.7,0,0,0-3.9,13s1.3,0,1.3.8a34.6,34.6,0,0,1-.6,4.9c-.3.7-2.2,1-2.2,1-1,5.3-1.7,9.6-2,10.9-.6,2.9-2.5,1.8-2.5,1.8a24.4,24.4,0,0,1-3.5-2.3,4.5,4.5,0,0,1-1.7-3.1,27.4,27.4,0,0,1,.7-6l-11.9,1.7c-2.4,3.8-3.5,5.4-4.9,7.9s-3.1,1-3.1,1l-3.1-3c-1.8-2.1.6-5.9.6-5.9,5.1-11.3,21.7-29.8,21.7-29.8a3.9,3.9,0,0,1,4.1-1.6s7.6,2.3,10.2,4.1S219.4,34.8,219.4,34.8Zm-9.8-.5s-7.2,7.5-10,13.5c0,0,3.6-.5,6.8-.6C206.4,47.2,208,39.2,209.6,34.3Z"/><path class="cls-1" d="M260.6,38.1s-7.8,29.8-21.2,28.8c-10.2-.8-8.5-11-7.3-11s2.4,3.6,5.3,2.7,5.1-6.5,10.1-18.2l5.3-12.6a3.3,3.3,0,0,1,3.3-1.7,8.9,8.9,0,0,1,4.5.9s1.3.7,1.2,3.7A33,33,0,0,1,260.6,38.1Z"/><path class="cls-1" d="M291.1,34.8a105.1,105.1,0,0,0-3.9,13s1.3,0,1.3.8a34.6,34.6,0,0,1-.6,4.9c-.3.7-2.2,1-2.2,1-1,5.3-1.7,9.6-2,10.9-.6,2.9-2.5,1.8-2.5,1.8a29.1,29.1,0,0,1-3.6-2.3,4.6,4.6,0,0,1-1.6-3.1,27.4,27.4,0,0,1,.7-6l-11.9,1.7c-2.4,3.8-3.5,5.4-4.9,7.9s-3.1,1-3.1,1a41.3,41.3,0,0,1-3.1-3c-1.8-2.1.6-5.9.6-5.9C259.4,46.2,276,27.7,276,27.7a3.9,3.9,0,0,1,4.1-1.6s7.5,2.3,10.2,4.1S291.1,34.8,291.1,34.8Zm-9.9-.5s-7.1,7.5-9.9,13.5c0,0,3.5-.5,6.8-.6A130.9,130.9,0,0,1,281.2,34.3Z"/><path class="cls-1" d="M309.6,38.2l-2.9,4.4a37,37,0,0,1,6.1-.6c2.6-.2,5.2.3,5.7,1.9a7.7,7.7,0,0,1-.4,6.3c-7.3-.8-18.1,2.6-18.1,2.6l-1.6,3.8a39.1,39.1,0,0,1,8.3-1.4c4.4-.3,6.2,3.8,7.2,6.7s-3.1,3.3-3.1,3.3-8.4-.1-13.6,1.5-5.9,0-5.9,0a29.6,29.6,0,0,1-3.3-4.1,7,7,0,0,1,0-7.6l11.2-19.5.3-1.2s-2.1-1.3-1.3-5a2.4,2.4,0,0,1,2.2-1.4c1.6-.4,15.8-2,18.4-2s4.8.8,6,3.3A12.1,12.1,0,0,1,326,35l-14.9,1.2Z"/><path class="cls-1" d="M337.3,29.4l3.7.5s5.3.9,4.1,8.7-.5,10.7-.5,10.7c1.6-4.3,10-21.5,11.7-23.5a2.8,2.8,0,0,1,3.6-.7l4.4,2.1a2.5,2.5,0,0,1,1.3,2.9,371,371,0,0,1-18.4,32.8c-2,3.1-4.6,1.7-4.6,1.7s-1.4-.2-5.5-3.6S335,46,335,46c-6.6,15.9-10.5,23-10.5,23s-7.1-2.4-4.9-10.7,11.1-25.2,11.1-25.2A6.5,6.5,0,0,1,337.3,29.4Z"/><path class="cls-1" d="M47.6,25.5s2.4,1.1,6.3,3.3a4.3,4.3,0,0,1,2,5.9l-16,31.4c-7.9-1.7-5-8.7-5-8.7L42,40,23.2,64.5c-4.8.5-4.4-6.3-4.4-6.3a57.5,57.5,0,0,1,3.6-19S9.2,65.1,7.8,67-1,72.2.1,62.8,15.2,32.3,15.2,32.3s2.7-3.8,5.2-3.5a51.4,51.4,0,0,1,9,2.9A3.6,3.6,0,0,1,31,36.2s-1.4,4.3-1.9,6.5c0,0,7.6-11.7,12.1-15.7S47.6,25.5,47.6,25.5Z"/><path class="cls-1" d="M71.9,38.2l-3,4.4A37,37,0,0,1,75,42c2.6-.2,5.2.3,5.8,1.9a8.2,8.2,0,0,1-.4,6.3c-7.4-.8-18.2,2.6-18.2,2.6l-1.6,3.8a40.7,40.7,0,0,1,8.3-1.4c4.4-.3,6.3,3.8,7.2,6.7S73,65.2,73,65.2s-8.4-.1-13.5,1.5-5.9,0-5.9,0a22.1,22.1,0,0,1-3.3-4.1,6.7,6.7,0,0,1,0-7.6L61.4,35.5l.3-1.2s-2.1-1.3-1.3-5c.5-1.4,2.3-1.4,2.3-1.4,1.6-.4,15.7-2,18.4-2s4.7.8,6,3.3A13.6,13.6,0,0,1,88.3,35l-15,1.2Z"/><path class="cls-1" d="M104.7,32.8c-.9,6.2-12.3,22.6-12.3,22.6s1.4-1,7.2-1.5,7.1,5.1,7.1,5.1a148.6,148.6,0,0,1-14.2,7.2c-5.3,2.2-14,.6-10.5-12.5S97.2,26.6,97.2,26.6a2.4,2.4,0,0,1,2.8-.9l3.2,2.3C105.3,30.6,104.7,32.8,104.7,32.8Z"/><path class="cls-1" d="M111.8,43.8c1.8-3.3,6.3-12.7,8-15.5s3.7-1.9,3.7-1.9a26.3,26.3,0,0,1,3.3,1.8c2,1.2.7,4.8.7,4.8C125,41.4,111,67.2,111,67.2a5.6,5.6,0,0,1-3.4-3.3C104.9,56.4,111.8,43.8,111.8,43.8Z"/><path class="cls-1" d="M124.1,48.6c5.4,11.7,16.1,10.3,17.4,10s3.7-3.1,0-4.8-15.8-2.9-15.1-11.6,8-14.1,14.5-15.9,14.6,1.5,16.5,7.3-8.2,12-8.2,12a6.9,6.9,0,0,1-5.6-5c-1.4-4.6,3.6-7.9,3.6-7.9s-8.4,2.4-10.8,7.1,9.4,6.6,13.1,8.9,4.9,10.6-2.1,15.1-20.6,6.4-24-4.8C123.4,59,121.6,51.8,124.1,48.6Z"/><path class="cls-1" d="M154.2,48.6c5.4,11.7,16.1,10.3,17.4,10s3.7-3.1,0-4.8-15.8-2.9-15.2-11.6,8.1-14.1,14.6-15.9,14.6,1.5,16.5,7.3-8.3,12-8.3,12-3.9-.3-5.5-5,3.6-7.9,3.6-7.9-8.5,2.4-10.8,7.1,9.4,6.6,13.1,8.9,4.8,10.6-2.1,15.1-20.7,6.4-24-4.8C153.5,59,151.6,51.8,154.2,48.6Z"/><path class="cls-1" d="M219.4,34.8a125.7,125.7,0,0,0-3.9,13s1.3,0,1.3.8a34.6,34.6,0,0,1-.6,4.9c-.3.7-2.2,1-2.2,1-1,5.3-1.7,9.6-2,10.9-.6,2.9-2.5,1.8-2.5,1.8a24.4,24.4,0,0,1-3.5-2.3,4.5,4.5,0,0,1-1.7-3.1,27.4,27.4,0,0,1,.7-6l-11.9,1.7c-2.4,3.8-3.5,5.4-4.9,7.9s-3.1,1-3.1,1l-3.1-3c-1.8-2.1.6-5.9.6-5.9,5.1-11.3,21.7-29.8,21.7-29.8a3.9,3.9,0,0,1,4.1-1.6s7.6,2.3,10.2,4.1S219.4,34.8,219.4,34.8Zm-9.8-.5s-7.2,7.5-10,13.5c0,0,3.6-.5,6.8-.6C206.4,47.2,208,39.2,209.6,34.3Z"/><path class="cls-1" d="M260.6,38.1s-7.8,29.8-21.2,28.8c-10.2-.8-8.5-11-7.3-11s2.4,3.6,5.3,2.7,5.1-6.5,10.1-18.2l5.3-12.6a3.3,3.3,0,0,1,3.3-1.7,8.9,8.9,0,0,1,4.5.9s1.3.7,1.2,3.7A33,33,0,0,1,260.6,38.1Z"/><path class="cls-1" d="M291.1,34.8a105.1,105.1,0,0,0-3.9,13s1.3,0,1.3.8a34.6,34.6,0,0,1-.6,4.9c-.3.7-2.2,1-2.2,1-1,5.3-1.7,9.6-2,10.9-.6,2.9-2.5,1.8-2.5,1.8a29.1,29.1,0,0,1-3.6-2.3,4.6,4.6,0,0,1-1.6-3.1,27.4,27.4,0,0,1,.7-6l-11.9,1.7c-2.4,3.8-3.5,5.4-4.9,7.9s-3.1,1-3.1,1a41.3,41.3,0,0,1-3.1-3c-1.8-2.1.6-5.9.6-5.9C259.4,46.2,276,27.7,276,27.7a3.9,3.9,0,0,1,4.1-1.6s7.5,2.3,10.2,4.1S291.1,34.8,291.1,34.8Zm-9.9-.5s-7.1,7.5-9.9,13.5c0,0,3.5-.5,6.8-.6A130.9,130.9,0,0,1,281.2,34.3Z"/><path class="cls-1" d="M309.6,38.2l-2.9,4.4a37,37,0,0,1,6.1-.6c2.6-.2,5.2.3,5.7,1.9a7.7,7.7,0,0,1-.4,6.3c-7.3-.8-18.1,2.6-18.1,2.6l-1.6,3.8a39.1,39.1,0,0,1,8.3-1.4c4.4-.3,6.2,3.8,7.2,6.7s-3.1,3.3-3.1,3.3-8.4-.1-13.6,1.5-5.9,0-5.9,0a29.6,29.6,0,0,1-3.3-4.1,7,7,0,0,1,0-7.6l11.2-19.5.3-1.2s-2.1-1.3-1.3-5a2.4,2.4,0,0,1,2.2-1.4c1.6-.4,15.8-2,18.4-2s4.8.8,6,3.3A12.1,12.1,0,0,1,326,35l-14.9,1.2Z"/><path class="cls-1" d="M337.3,29.4l3.7.5s5.3.9,4.1,8.7-.5,10.7-.5,10.7c1.6-4.3,10-21.5,11.7-23.5a2.8,2.8,0,0,1,3.6-.7l4.4,2.1a2.5,2.5,0,0,1,1.3,2.9,371,371,0,0,1-18.4,32.8c-2,3.1-4.6,1.7-4.6,1.7s-1.4-.2-5.5-3.6S335,46,335,46c-6.6,15.9-10.5,23-10.5,23s-7.1-2.4-4.9-10.7,11.1-25.2,11.1-25.2A6.5,6.5,0,0,1,337.3,29.4Z"/><path class="cls-1" d="M47.6,25.5s2.4,1.1,6.3,3.3a4.3,4.3,0,0,1,2,5.9l-16,31.4c-7.9-1.7-5-8.7-5-8.7L42,40,23.2,64.5c-4.8.5-4.4-6.3-4.4-6.3a57.5,57.5,0,0,1,3.6-19S9.2,65.1,7.8,67-1,72.2.1,62.8,15.2,32.3,15.2,32.3s2.7-3.8,5.2-3.5a51.4,51.4,0,0,1,9,2.9A3.6,3.6,0,0,1,31,36.2s-1.4,4.3-1.9,6.5c0,0,7.6-11.7,12.1-15.7S47.6,25.5,47.6,25.5Z"/><path class="cls-1" d="M71.9,38.2l-3,4.4A37,37,0,0,1,75,42c2.6-.2,5.2.3,5.8,1.9a8.2,8.2,0,0,1-.4,6.3c-7.4-.8-18.2,2.6-18.2,2.6l-1.6,3.8a40.7,40.7,0,0,1,8.3-1.4c4.4-.3,6.3,3.8,7.2,6.7S73,65.2,73,65.2s-8.4-.1-13.5,1.5-5.9,0-5.9,0a22.1,22.1,0,0,1-3.3-4.1,6.7,6.7,0,0,1,0-7.6L61.4,35.5l.3-1.2s-2.1-1.3-1.3-5c.5-1.4,2.3-1.4,2.3-1.4,1.6-.4,15.7-2,18.4-2s4.7.8,6,3.3A13.6,13.6,0,0,1,88.3,35l-15,1.2Z"/><path class="cls-1" d="M104.7,32.8c-.9,6.2-12.3,22.6-12.3,22.6s1.4-1,7.2-1.5,7.1,5.1,7.1,5.1a148.6,148.6,0,0,1-14.2,7.2c-5.3,2.2-14,.6-10.5-12.5S97.2,26.6,97.2,26.6a2.4,2.4,0,0,1,2.8-.9l3.2,2.3C105.3,30.6,104.7,32.8,104.7,32.8Z"/><path class="cls-1" d="M111.8,43.8c1.8-3.3,6.3-12.7,8-15.5s3.7-1.9,3.7-1.9a26.3,26.3,0,0,1,3.3,1.8c2,1.2.7,4.8.7,4.8C125,41.4,111,67.2,111,67.2a5.6,5.6,0,0,1-3.4-3.3C104.9,56.4,111.8,43.8,111.8,43.8Z"/><path class="cls-1" d="M124.1,48.6c5.4,11.7,16.1,10.3,17.4,10s3.7-3.1,0-4.8-15.8-2.9-15.1-11.6,8-14.1,14.5-15.9,14.6,1.5,16.5,7.3-8.2,12-8.2,12a6.9,6.9,0,0,1-5.6-5c-1.4-4.6,3.6-7.9,3.6-7.9s-8.4,2.4-10.8,7.1,9.4,6.6,13.1,8.9,4.9,10.6-2.1,15.1-20.6,6.4-24-4.8C123.4,59,121.6,51.8,124.1,48.6Z"/><path class="cls-1" d="M154.2,48.6c5.4,11.7,16.1,10.3,17.4,10s3.7-3.1,0-4.8-15.8-2.9-15.2-11.6,8.1-14.1,14.6-15.9,14.6,1.5,16.5,7.3-8.3,12-8.3,12-3.9-.3-5.5-5,3.6-7.9,3.6-7.9-8.5,2.4-10.8,7.1,9.4,6.6,13.1,8.9,4.8,10.6-2.1,15.1-20.7,6.4-24-4.8C153.5,59,151.6,51.8,154.2,48.6Z"/><path class="cls-1" d="M219.4,34.8a125.7,125.7,0,0,0-3.9,13s1.3,0,1.3.8a34.6,34.6,0,0,1-.6,4.9c-.3.7-2.2,1-2.2,1-1,5.3-1.7,9.6-2,10.9-.6,2.9-2.5,1.8-2.5,1.8a24.4,24.4,0,0,1-3.5-2.3,4.5,4.5,0,0,1-1.7-3.1,27.4,27.4,0,0,1,.7-6l-11.9,1.7c-2.4,3.8-3.5,5.4-4.9,7.9s-3.1,1-3.1,1l-3.1-3c-1.8-2.1.6-5.9.6-5.9,5.1-11.3,21.7-29.8,21.7-29.8a3.9,3.9,0,0,1,4.1-1.6s7.6,2.3,10.2,4.1S219.4,34.8,219.4,34.8Zm-9.8-.5s-7.2,7.5-10,13.5c0,0,3.6-.5,6.8-.6C206.4,47.2,208,39.2,209.6,34.3Z"/><path class="cls-1" d="M260.6,38.1s-7.8,29.8-21.2,28.8c-10.2-.8-8.5-11-7.3-11s2.4,3.6,5.3,2.7,5.1-6.5,10.1-18.2l5.3-12.6a3.3,3.3,0,0,1,3.3-1.7,8.9,8.9,0,0,1,4.5.9s1.3.7,1.2,3.7A33,33,0,0,1,260.6,38.1Z"/><path class="cls-1" d="M291.1,34.8a105.1,105.1,0,0,0-3.9,13s1.3,0,1.3.8a34.6,34.6,0,0,1-.6,4.9c-.3.7-2.2,1-2.2,1-1,5.3-1.7,9.6-2,10.9-.6,2.9-2.5,1.8-2.5,1.8a29.1,29.1,0,0,1-3.6-2.3,4.6,4.6,0,0,1-1.6-3.1,27.4,27.4,0,0,1,.7-6l-11.9,1.7c-2.4,3.8-3.5,5.4-4.9,7.9s-3.1,1-3.1,1a41.3,41.3,0,0,1-3.1-3c-1.8-2.1.6-5.9.6-5.9C259.4,46.2,276,27.7,276,27.7a3.9,3.9,0,0,1,4.1-1.6s7.5,2.3,10.2,4.1S291.1,34.8,291.1,34.8Zm-9.9-.5s-7.1,7.5-9.9,13.5c0,0,3.5-.5,6.8-.6A130.9,130.9,0,0,1,281.2,34.3Z"/><path class="cls-1" d="M309.6,38.2l-2.9,4.4a37,37,0,0,1,6.1-.6c2.6-.2,5.2.3,5.7,1.9a7.7,7.7,0,0,1-.4,6.3c-7.3-.8-18.1,2.6-18.1,2.6l-1.6,3.8a39.1,39.1,0,0,1,8.3-1.4c4.4-.3,6.2,3.8,7.2,6.7s-3.1,3.3-3.1,3.3-8.4-.1-13.6,1.5-5.9,0-5.9,0a29.6,29.6,0,0,1-3.3-4.1,7,7,0,0,1,0-7.6l11.2-19.5.3-1.2s-2.1-1.3-1.3-5a2.4,2.4,0,0,1,2.2-1.4c1.6-.4,15.8-2,18.4-2s4.8.8,6,3.3A12.1,12.1,0,0,1,326,35l-14.9,1.2Z"/><path class="cls-1" d="M337.3,29.4l3.7.5s5.3.9,4.1,8.7-.5,10.7-.5,10.7c1.6-4.3,10-21.5,11.7-23.5a2.8,2.8,0,0,1,3.6-.7l4.4,2.1a2.5,2.5,0,0,1,1.3,2.9,371,371,0,0,1-18.4,32.8c-2,3.1-4.6,1.7-4.6,1.7s-1.4-.2-5.5-3.6S335,46,335,46c-6.6,15.9-10.5,23-10.5,23s-7.1-2.4-4.9-10.7,11.1-25.2,11.1-25.2A6.5,6.5,0,0,1,337.3,29.4Z"/><path class="cls-1" d="M47.6,25.5s2.4,1.1,6.3,3.3a4.3,4.3,0,0,1,2,5.9l-16,31.4c-7.9-1.7-5-8.7-5-8.7L42,40,23.2,64.5c-4.8.5-4.4-6.3-4.4-6.3a57.5,57.5,0,0,1,3.6-19S9.2,65.1,7.8,67-1,72.2.1,62.8,15.2,32.3,15.2,32.3s2.7-3.8,5.2-3.5a51.4,51.4,0,0,1,9,2.9A3.6,3.6,0,0,1,31,36.2s-1.4,4.3-1.9,6.5c0,0,7.6-11.7,12.1-15.7S47.6,25.5,47.6,25.5Z"/><path class="cls-1" d="M71.9,38.2l-3,4.4A37,37,0,0,1,75,42c2.6-.2,5.2.3,5.8,1.9a8.2,8.2,0,0,1-.4,6.3c-7.4-.8-18.2,2.6-18.2,2.6l-1.6,3.8a40.7,40.7,0,0,1,8.3-1.4c4.4-.3,6.3,3.8,7.2,6.7S73,65.2,73,65.2s-8.4-.1-13.5,1.5-5.9,0-5.9,0a22.1,22.1,0,0,1-3.3-4.1,6.7,6.7,0,0,1,0-7.6L61.4,35.5l.3-1.2s-2.1-1.3-1.3-5c.5-1.4,2.3-1.4,2.3-1.4,1.6-.4,15.7-2,18.4-2s4.7.8,6,3.3A13.6,13.6,0,0,1,88.3,35l-15,1.2Z"/><path class="cls-1" d="M104.7,32.8c-.9,6.2-12.3,22.6-12.3,22.6s1.4-1,7.2-1.5,7.1,5.1,7.1,5.1a148.6,148.6,0,0,1-14.2,7.2c-5.3,2.2-14,.6-10.5-12.5S97.2,26.6,97.2,26.6a2.4,2.4,0,0,1,2.8-.9l3.2,2.3C105.3,30.6,104.7,32.8,104.7,32.8Z"/><path class="cls-1" d="M111.8,43.8c1.8-3.3,6.3-12.7,8-15.5s3.7-1.9,3.7-1.9a26.3,26.3,0,0,1,3.3,1.8c2,1.2.7,4.8.7,4.8C125,41.4,111,67.2,111,67.2a5.6,5.6,0,0,1-3.4-3.3C104.9,56.4,111.8,43.8,111.8,43.8Z"/><path class="cls-1" d="M124.1,48.6c5.4,11.7,16.1,10.3,17.4,10s3.7-3.1,0-4.8-15.8-2.9-15.1-11.6,8-14.1,14.5-15.9,14.6,1.5,16.5,7.3-8.2,12-8.2,12a6.9,6.9,0,0,1-5.6-5c-1.4-4.6,3.6-7.9,3.6-7.9s-8.4,2.4-10.8,7.1,9.4,6.6,13.1,8.9,4.9,10.6-2.1,15.1-20.6,6.4-24-4.8C123.4,59,121.6,51.8,124.1,48.6Z"/><path class="cls-1" d="M154.2,48.6c5.4,11.7,16.1,10.3,17.4,10s3.7-3.1,0-4.8-15.8-2.9-15.2-11.6,8.1-14.1,14.6-15.9,14.6,1.5,16.5,7.3-8.3,12-8.3,12-3.9-.3-5.5-5,3.6-7.9,3.6-7.9-8.5,2.4-10.8,7.1,9.4,6.6,13.1,8.9,4.8,10.6-2.1,15.1-20.7,6.4-24-4.8C153.5,59,151.6,51.8,154.2,48.6Z"/><path class="cls-1" d="M219.4,34.8a125.7,125.7,0,0,0-3.9,13s1.3,0,1.3.8a34.6,34.6,0,0,1-.6,4.9c-.3.7-2.2,1-2.2,1-1,5.3-1.7,9.6-2,10.9-.6,2.9-2.5,1.8-2.5,1.8a24.4,24.4,0,0,1-3.5-2.3,4.5,4.5,0,0,1-1.7-3.1,27.4,27.4,0,0,1,.7-6l-11.9,1.7c-2.4,3.8-3.5,5.4-4.9,7.9s-3.1,1-3.1,1l-3.1-3c-1.8-2.1.6-5.9.6-5.9,5.1-11.3,21.7-29.8,21.7-29.8a3.9,3.9,0,0,1,4.1-1.6s7.6,2.3,10.2,4.1S219.4,34.8,219.4,34.8Zm-9.8-.5s-7.2,7.5-10,13.5c0,0,3.6-.5,6.8-.6C206.4,47.2,208,39.2,209.6,34.3Z"/><path class="cls-1" d="M260.6,38.1s-7.8,29.8-21.2,28.8c-10.2-.8-8.5-11-7.3-11s2.4,3.6,5.3,2.7,5.1-6.5,10.1-18.2l5.3-12.6a3.3,3.3,0,0,1,3.3-1.7,8.9,8.9,0,0,1,4.5.9s1.3.7,1.2,3.7A33,33,0,0,1,260.6,38.1Z"/><path class="cls-1" d="M291.1,34.8a105.1,105.1,0,0,0-3.9,13s1.3,0,1.3.8a34.6,34.6,0,0,1-.6,4.9c-.3.7-2.2,1-2.2,1-1,5.3-1.7,9.6-2,10.9-.6,2.9-2.5,1.8-2.5,1.8a29.1,29.1,0,0,1-3.6-2.3,4.6,4.6,0,0,1-1.6-3.1,27.4,27.4,0,0,1,.7-6l-11.9,1.7c-2.4,3.8-3.5,5.4-4.9,7.9s-3.1,1-3.1,1a41.3,41.3,0,0,1-3.1-3c-1.8-2.1.6-5.9.6-5.9C259.4,46.2,276,27.7,276,27.7a3.9,3.9,0,0,1,4.1-1.6s7.5,2.3,10.2,4.1S291.1,34.8,291.1,34.8Zm-9.9-.5s-7.1,7.5-9.9,13.5c0,0,3.5-.5,6.8-.6A130.9,130.9,0,0,1,281.2,34.3Z"/><path class="cls-1" d="M309.6,38.2l-2.9,4.4a37,37,0,0,1,6.1-.6c2.6-.2,5.2.3,5.7,1.9a7.7,7.7,0,0,1-.4,6.3c-7.3-.8-18.1,2.6-18.1,2.6l-1.6,3.8a39.1,39.1,0,0,1,8.3-1.4c4.4-.3,6.2,3.8,7.2,6.7s-3.1,3.3-3.1,3.3-8.4-.1-13.6,1.5-5.9,0-5.9,0a29.6,29.6,0,0,1-3.3-4.1,7,7,0,0,1,0-7.6l11.2-19.5.3-1.2s-2.1-1.3-1.3-5a2.4,2.4,0,0,1,2.2-1.4c1.6-.4,15.8-2,18.4-2s4.8.8,6,3.3A12.1,12.1,0,0,1,326,35l-14.9,1.2Z"/><path class="cls-1" d="M337.3,29.4l3.7.5s5.3.9,4.1,8.7-.5,10.7-.5,10.7c1.6-4.3,10-21.5,11.7-23.5a2.8,2.8,0,0,1,3.6-.7l4.4,2.1a2.5,2.5,0,0,1,1.3,2.9,371,371,0,0,1-18.4,32.8c-2,3.1-4.6,1.7-4.6,1.7s-1.4-.2-5.5-3.6S335,46,335,46c-6.6,15.9-10.5,23-10.5,23s-7.1-2.4-4.9-10.7,11.1-25.2,11.1-25.2A6.5,6.5,0,0,1,337.3,29.4Z"/><path class="cls-1" d="M47.6,25.5s2.4,1.1,6.3,3.3a4.3,4.3,0,0,1,2,5.9l-16,31.4c-7.9-1.7-5-8.7-5-8.7L42,40,23.2,64.5c-4.8.5-4.4-6.3-4.4-6.3a57.5,57.5,0,0,1,3.6-19S9.2,65.1,7.8,67-1,72.2.1,62.8,15.2,32.3,15.2,32.3s2.7-3.8,5.2-3.5a51.4,51.4,0,0,1,9,2.9A3.6,3.6,0,0,1,31,36.2s-1.4,4.3-1.9,6.5c0,0,7.6-11.7,12.1-15.7S47.6,25.5,47.6,25.5Z"/><path class="cls-1" d="M71.9,38.2l-3,4.4A37,37,0,0,1,75,42c2.6-.2,5.2.3,5.8,1.9a8.2,8.2,0,0,1-.4,6.3c-7.4-.8-18.2,2.6-18.2,2.6l-1.6,3.8a40.7,40.7,0,0,1,8.3-1.4c4.4-.3,6.3,3.8,7.2,6.7S73,65.2,73,65.2s-8.4-.1-13.5,1.5-5.9,0-5.9,0a22.1,22.1,0,0,1-3.3-4.1,6.7,6.7,0,0,1,0-7.6L61.4,35.5l.3-1.2s-2.1-1.3-1.3-5c.5-1.4,2.3-1.4,2.3-1.4,1.6-.4,15.7-2,18.4-2s4.7.8,6,3.3A13.6,13.6,0,0,1,88.3,35l-15,1.2Z"/><path class="cls-1" d="M104.7,32.8c-.9,6.2-12.3,22.6-12.3,22.6s1.4-1,7.2-1.5,7.1,5.1,7.1,5.1a148.6,148.6,0,0,1-14.2,7.2c-5.3,2.2-14,.6-10.5-12.5S97.2,26.6,97.2,26.6a2.4,2.4,0,0,1,2.8-.9l3.2,2.3C105.3,30.6,104.7,32.8,104.7,32.8Z"/><path class="cls-1" d="M111.8,43.8c1.8-3.3,6.3-12.7,8-15.5s3.7-1.9,3.7-1.9a26.3,26.3,0,0,1,3.3,1.8c2,1.2.7,4.8.7,4.8C125,41.4,111,67.2,111,67.2a5.6,5.6,0,0,1-3.4-3.3C104.9,56.4,111.8,43.8,111.8,43.8Z"/><path class="cls-1" d="M124.1,48.6c5.4,11.7,16.1,10.3,17.4,10s3.7-3.1,0-4.8-15.8-2.9-15.1-11.6,8-14.1,14.5-15.9,14.6,1.5,16.5,7.3-8.2,12-8.2,12a6.9,6.9,0,0,1-5.6-5c-1.4-4.6,3.6-7.9,3.6-7.9s-8.4,2.4-10.8,7.1,9.4,6.6,13.1,8.9,4.9,10.6-2.1,15.1-20.6,6.4-24-4.8C123.4,59,121.6,51.8,124.1,48.6Z"/><path class="cls-1" d="M154.2,48.6c5.4,11.7,16.1,10.3,17.4,10s3.7-3.1,0-4.8-15.8-2.9-15.2-11.6,8.1-14.1,14.6-15.9,14.6,1.5,16.5,7.3-8.3,12-8.3,12-3.9-.3-5.5-5,3.6-7.9,3.6-7.9-8.5,2.4-10.8,7.1,9.4,6.6,13.1,8.9,4.8,10.6-2.1,15.1-20.7,6.4-24-4.8C153.5,59,151.6,51.8,154.2,48.6Z"/><path class="cls-1" d="M219.4,34.8a125.7,125.7,0,0,0-3.9,13s1.3,0,1.3.8a34.6,34.6,0,0,1-.6,4.9c-.3.7-2.2,1-2.2,1-1,5.3-1.7,9.6-2,10.9-.6,2.9-2.5,1.8-2.5,1.8a24.4,24.4,0,0,1-3.5-2.3,4.5,4.5,0,0,1-1.7-3.1,27.4,27.4,0,0,1,.7-6l-11.9,1.7c-2.4,3.8-3.5,5.4-4.9,7.9s-3.1,1-3.1,1l-3.1-3c-1.8-2.1.6-5.9.6-5.9,5.1-11.3,21.7-29.8,21.7-29.8a3.9,3.9,0,0,1,4.1-1.6s7.6,2.3,10.2,4.1S219.4,34.8,219.4,34.8Zm-9.8-.5s-7.2,7.5-10,13.5c0,0,3.6-.5,6.8-.6C206.4,47.2,208,39.2,209.6,34.3Z"/><path class="cls-1" d="M260.6,38.1s-7.8,29.8-21.2,28.8c-10.2-.8-8.5-11-7.3-11s2.4,3.6,5.3,2.7,5.1-6.5,10.1-18.2l5.3-12.6a3.3,3.3,0,0,1,3.3-1.7,8.9,8.9,0,0,1,4.5.9s1.3.7,1.2,3.7A33,33,0,0,1,260.6,38.1Z"/><path class="cls-1" d="M291.1,34.8a105.1,105.1,0,0,0-3.9,13s1.3,0,1.3.8a34.6,34.6,0,0,1-.6,4.9c-.3.7-2.2,1-2.2,1-1,5.3-1.7,9.6-2,10.9-.6,2.9-2.5,1.8-2.5,1.8a29.1,29.1,0,0,1-3.6-2.3,4.6,4.6,0,0,1-1.6-3.1,27.4,27.4,0,0,1,.7-6l-11.9,1.7c-2.4,3.8-3.5,5.4-4.9,7.9s-3.1,1-3.1,1a41.3,41.3,0,0,1-3.1-3c-1.8-2.1.6-5.9.6-5.9C259.4,46.2,276,27.7,276,27.7a3.9,3.9,0,0,1,4.1-1.6s7.5,2.3,10.2,4.1S291.1,34.8,291.1,34.8Zm-9.9-.5s-7.1,7.5-9.9,13.5c0,0,3.5-.5,6.8-.6A130.9,130.9,0,0,1,281.2,34.3Z"/><path class="cls-1" d="M309.6,38.2l-2.9,4.4a37,37,0,0,1,6.1-.6c2.6-.2,5.2.3,5.7,1.9a7.7,7.7,0,0,1-.4,6.3c-7.3-.8-18.1,2.6-18.1,2.6l-1.6,3.8a39.1,39.1,0,0,1,8.3-1.4c4.4-.3,6.2,3.8,7.2,6.7s-3.1,3.3-3.1,3.3-8.4-.1-13.6,1.5-5.9,0-5.9,0a29.6,29.6,0,0,1-3.3-4.1,7,7,0,0,1,0-7.6l11.2-19.5.3-1.2s-2.1-1.3-1.3-5a2.4,2.4,0,0,1,2.2-1.4c1.6-.4,15.8-2,18.4-2s4.8.8,6,3.3A12.1,12.1,0,0,1,326,35l-14.9,1.2Z"/><path class="cls-1" d="M337.3,29.4l3.7.5s5.3.9,4.1,8.7-.5,10.7-.5,10.7c1.6-4.3,10-21.5,11.7-23.5a2.8,2.8,0,0,1,3.6-.7l4.4,2.1a2.5,2.5,0,0,1,1.3,2.9,371,371,0,0,1-18.4,32.8c-2,3.1-4.6,1.7-4.6,1.7s-1.4-.2-5.5-3.6S335,46,335,46c-6.6,15.9-10.5,23-10.5,23s-7.1-2.4-4.9-10.7,11.1-25.2,11.1-25.2A6.5,6.5,0,0,1,337.3,29.4Z"/><text class="cls-2" transform="translate(2.6 67.2)">Me<tspan class="cls-3" x="81" y="0">l</tspan><tspan class="cls-4" x="105.7" y="0">i</tspan><tspan class="cls-5" x="122.6" y="0">s</tspan><tspan class="cls-6" x="152.6" y="0">s</tspan><tspan x="181.1" y="0">a </tspan><tspan class="cls-7" x="231" y="0">J</tspan><tspan class="cls-8" x="252.8" y="0">a</tspan><tspan class="cls-9" x="289.1" y="0">e</tspan><tspan x="319.5" y="0">n</tspan></text><text class="cls-2" transform="translate(2.6 67.2)">Me<tspan class="cls-3" x="81" y="0">l</tspan><tspan class="cls-4" x="105.7" y="0">i</tspan><tspan class="cls-5" x="122.6" y="0">s</tspan><tspan class="cls-6" x="152.6" y="0">s</tspan><tspan x="181.1" y="0">a </tspan><tspan class="cls-7" x="231" y="0">J</tspan><tspan class="cls-8" x="252.8" y="0">a</tspan><tspan class="cls-9" x="289.1" y="0">e</tspan><tspan x="319.5" y="0">n</tspan></text><text class="cls-2" transform="translate(2.6 67.2)">Me<tspan class="cls-3" x="81" y="0">l</tspan><tspan class="cls-4" x="105.7" y="0">i</tspan><tspan class="cls-5" x="122.6" y="0">s</tspan><tspan class="cls-6" x="152.6" y="0">s</tspan><tspan x="181.1" y="0">a </tspan><tspan class="cls-7" x="231" y="0">J</tspan><tspan class="cls-8" x="252.8" y="0">a</tspan><tspan class="cls-9" x="289.1" y="0">e</tspan><tspan x="319.5" y="0">n</tspan></text><text class="cls-10" transform="translate(2.6 67.2)">Me<tspan class="cls-3" x="81" y="0">l</tspan><tspan class="cls-4" x="105.7" y="0">i</tspan><tspan class="cls-5" x="122.6" y="0">s</tspan><tspan class="cls-6" x="152.6" y="0">s</tspan><tspan x="181.1" y="0">a </tspan><tspan class="cls-7" x="231" y="0">J</tspan><tspan class="cls-8" x="252.8" y="0">a</tspan><tspan class="cls-9" x="289.1" y="0">e</tspan><tspan x="319.5" y="0">n</tspan></text><path class="cls-11" d="M47.6,25.5s2.4,1.1,6.3,3.3a4.3,4.3,0,0,1,2,5.9l-16,31.4c-7.9-1.7-5-8.7-5-8.7L42,40,23.2,64.5c-4.8.5-4.4-6.3-4.4-6.3a57.5,57.5,0,0,1,3.6-19S9.2,65.1,7.8,67-1,72.2.1,62.8,15.2,32.3,15.2,32.3s2.7-3.8,5.2-3.5a51.4,51.4,0,0,1,9,2.9A3.6,3.6,0,0,1,31,36.2s-1.4,4.3-1.9,6.5c0,0,7.6-11.7,12.1-15.7S47.6,25.5,47.6,25.5Z"/><path class="cls-11" d="M71.9,38.2l-3,4.4A37,37,0,0,1,75,42c2.6-.2,5.2.3,5.8,1.9a8.2,8.2,0,0,1-.4,6.3c-7.4-.8-18.2,2.6-18.2,2.6l-1.6,3.8a40.7,40.7,0,0,1,8.3-1.4c4.4-.3,6.3,3.8,7.2,6.7S73,65.2,73,65.2s-8.4-.1-13.5,1.5-5.9,0-5.9,0a22.1,22.1,0,0,1-3.3-4.1,6.7,6.7,0,0,1,0-7.6L61.4,35.5l.3-1.2s-2.1-1.3-1.3-5c.5-1.4,2.3-1.4,2.3-1.4,1.6-.4,15.7-2,18.4-2s4.7.8,6,3.3A13.6,13.6,0,0,1,88.3,35l-15,1.2Z"/><path class="cls-11" d="M104.7,32.8c-.9,6.2-12.3,22.6-12.3,22.6s1.4-1,7.2-1.5,7.1,5.1,7.1,5.1a148.6,148.6,0,0,1-14.2,7.2c-5.3,2.2-14,.6-10.5-12.5S97.2,26.6,97.2,26.6a2.4,2.4,0,0,1,2.8-.9l3.2,2.3C105.3,30.6,104.7,32.8,104.7,32.8Z"/><path class="cls-11" d="M111.8,43.8c1.8-3.3,6.3-12.7,8-15.5s3.7-1.9,3.7-1.9a26.3,26.3,0,0,1,3.3,1.8c2,1.2.7,4.8.7,4.8C125,41.4,111,67.2,111,67.2a5.6,5.6,0,0,1-3.4-3.3C104.9,56.4,111.8,43.8,111.8,43.8Z"/><path class="cls-11" d="M124.1,48.6c5.4,11.7,16.1,10.3,17.4,10s3.7-3.1,0-4.8-15.8-2.9-15.1-11.6,8-14.1,14.5-15.9,14.6,1.5,16.5,7.3-8.2,12-8.2,12a6.9,6.9,0,0,1-5.6-5c-1.4-4.6,3.6-7.9,3.6-7.9s-8.4,2.4-10.8,7.1,9.4,6.6,13.1,8.9,4.9,10.6-2.1,15.1-20.6,6.4-24-4.8C123.4,59,121.6,51.8,124.1,48.6Z"/><path class="cls-11" d="M154.2,48.6c5.4,11.7,16.1,10.3,17.4,10s3.7-3.1,0-4.8-15.8-2.9-15.2-11.6,8.1-14.1,14.6-15.9,14.6,1.5,16.5,7.3-8.3,12-8.3,12-3.9-.3-5.5-5,3.6-7.9,3.6-7.9-8.5,2.4-10.8,7.1,9.4,6.6,13.1,8.9,4.8,10.6-2.1,15.1-20.7,6.4-24-4.8C153.5,59,151.6,51.8,154.2,48.6Z"/><path class="cls-11" d="M219.4,34.8a125.7,125.7,0,0,0-3.9,13s1.3,0,1.3.8a34.6,34.6,0,0,1-.6,4.9c-.3.7-2.2,1-2.2,1-1,5.3-1.7,9.6-2,10.9-.6,2.9-2.5,1.8-2.5,1.8a24.4,24.4,0,0,1-3.5-2.3,4.5,4.5,0,0,1-1.7-3.1,27.4,27.4,0,0,1,.7-6l-11.9,1.7c-2.4,3.8-3.5,5.4-4.9,7.9s-3.1,1-3.1,1l-3.1-3c-1.8-2.1.6-5.9.6-5.9,5.1-11.3,21.7-29.8,21.7-29.8a3.9,3.9,0,0,1,4.1-1.6s7.6,2.3,10.2,4.1S219.4,34.8,219.4,34.8Zm-9.8-.5s-7.2,7.5-10,13.5c0,0,3.6-.5,6.8-.6C206.4,47.2,208,39.2,209.6,34.3Z"/><path class="cls-11" d="M260.6,38.1s-7.8,29.8-21.2,28.8c-10.2-.8-8.5-11-7.3-11s2.4,3.6,5.3,2.7,5.1-6.5,10.1-18.2l5.3-12.6a3.3,3.3,0,0,1,3.3-1.7,8.9,8.9,0,0,1,4.5.9s1.3.7,1.2,3.7A33,33,0,0,1,260.6,38.1Z"/><path class="cls-11" d="M291.1,34.8a105.1,105.1,0,0,0-3.9,13s1.3,0,1.3.8a34.6,34.6,0,0,1-.6,4.9c-.3.7-2.2,1-2.2,1-1,5.3-1.7,9.6-2,10.9-.6,2.9-2.5,1.8-2.5,1.8a29.1,29.1,0,0,1-3.6-2.3,4.6,4.6,0,0,1-1.6-3.1,27.4,27.4,0,0,1,.7-6l-11.9,1.7c-2.4,3.8-3.5,5.4-4.9,7.9s-3.1,1-3.1,1a41.3,41.3,0,0,1-3.1-3c-1.8-2.1.6-5.9.6-5.9C259.4,46.2,276,27.7,276,27.7a3.9,3.9,0,0,1,4.1-1.6s7.5,2.3,10.2,4.1S291.1,34.8,291.1,34.8Zm-9.9-.5s-7.1,7.5-9.9,13.5c0,0,3.5-.5,6.8-.6A130.9,130.9,0,0,1,281.2,34.3Z"/><path class="cls-11" d="M309.6,38.2l-2.9,4.4a37,37,0,0,1,6.1-.6c2.6-.2,5.2.3,5.7,1.9a7.7,7.7,0,0,1-.4,6.3c-7.3-.8-18.1,2.6-18.1,2.6l-1.6,3.8a39.1,39.1,0,0,1,8.3-1.4c4.4-.3,6.2,3.8,7.2,6.7s-3.1,3.3-3.1,3.3-8.4-.1-13.6,1.5-5.9,0-5.9,0a29.6,29.6,0,0,1-3.3-4.1,7,7,0,0,1,0-7.6l11.2-19.5.3-1.2s-2.1-1.3-1.3-5a2.4,2.4,0,0,1,2.2-1.4c1.6-.4,15.8-2,18.4-2s4.8.8,6,3.3A12.1,12.1,0,0,1,326,35l-14.9,1.2Z"/><path class="cls-11" d="M337.3,29.4l3.7.5s5.3.9,4.1,8.7-.5,10.7-.5,10.7c1.6-4.3,10-21.5,11.7-23.5a2.8,2.8,0,0,1,3.6-.7l4.4,2.1a2.5,2.5,0,0,1,1.3,2.9,371,371,0,0,1-18.4,32.8c-2,3.1-4.6,1.7-4.6,1.7s-1.4-.2-5.5-3.6S335,46,335,46c-6.6,15.9-10.5,23-10.5,23s-7.1-2.4-4.9-10.7,11.1-25.2,11.1-25.2A6.5,6.5,0,0,1,337.3,29.4Z"/></g></g></svg>