<svg xmlns="http://www.w3.org/2000/svg" xmlns:xlink="http://www.w3.org/1999/xlink" viewBox="0 0 365.7 44.4"><defs><style>.cls-1{fill:url(#linear-gradient);}.cls-2{fill:url(#linear-gradient-2);}.cls-3{fill:url(#linear-gradient-3);}.cls-4{fill:url(#linear-gradient-4);}.cls-5{fill:url(#linear-gradient-5);}.cls-6{fill:url(#linear-gradient-6);}.cls-7{fill:url(#linear-gradient-7);}.cls-8{fill:url(#linear-gradient-8);}.cls-9{fill:url(#linear-gradient-9);}.cls-10{fill:url(#linear-gradient-10);}.cls-11{fill:url(#linear-gradient-11);}</style><linearGradient id="linear-gradient" x1="0.14" y1="11.1" x2="329.35" y2="47.06" gradientTransform="matrix(1, 0, 0, -1, 0, 36.44)" gradientUnits="userSpaceOnUse"><stop offset="0.27" stop-color="#ef559b"/><stop offset="0.29" stop-color="#ef5e98"/><stop offset="0.38" stop-color="#f1888b"/><stop offset="0.47" stop-color="#f3aa81"/><stop offset="0.57" stop-color="#f4c579"/><stop offset="0.66" stop-color="#f5d873"/><stop offset="0.76" stop-color="#f6e36f"/><stop offset="0.86" stop-color="#f6e76e"/></linearGradient><linearGradient id="linear-gradient-2" x1="0.56" y1="7.17" x2="329.77" y2="43.13" xlink:href="#linear-gradient"/><linearGradient id="linear-gradient-3" x1="0.84" y1="4.7" x2="330.05" y2="40.66" xlink:href="#linear-gradient"/><linearGradient id="linear-gradient-4" x1="1.15" y1="1.8" x2="330.36" y2="37.76" xlink:href="#linear-gradient"/><linearGradient id="linear-gradient-5" x1="1.41" y1="-0.57" x2="330.62" y2="35.39" xlink:href="#linear-gradient"/><linearGradient id="linear-gradient-6" x1="1.76" y1="-3.82" x2="330.97" y2="32.14" xlink:href="#linear-gradient"/><linearGradient id="linear-gradient-7" x1="2.23" y1="-8.11" x2="331.44" y2="27.85" xlink:href="#linear-gradient"/><linearGradient id="linear-gradient-8" x1="2.67" y1="-12.14" x2="331.88" y2="23.82" xlink:href="#linear-gradient"/><linearGradient id="linear-gradient-9" x1="3.08" y1="-15.85" x2="332.29" y2="20.11" xlink:href="#linear-gradient"/><linearGradient id="linear-gradient-10" x1="3.37" y1="-18.48" x2="332.58" y2="17.48" xlink:href="#linear-gradient"/><linearGradient id="linear-gradient-11" x1="3.81" y1="-22.58" x2="333.02" y2="13.38" xlink:href="#linear-gradient"/></defs><title>Layer 1</title><g id="Layer_2" data-name="Layer 2"><g id="Layer_1-2" data-name="Layer 1"><g id="Layer_2-2" data-name="Layer 2"><g id="Layer_1-2-2" data-name="Layer 1-2"><path class="cls-1" d="M47.6.8S50,1.9,53.9,4.1A4.2,4.2,0,0,1,56,9.8V10l-16,31.4c-7.9-1.7-5-8.7-5-8.7L42,15.3,23.2,39.8c-4.8.5-4.4-6.3-4.4-6.3a56.2,56.2,0,0,1,3.6-19S9.2,40.4,7.8,42.3-1,47.5.1,38.1,15.2,7.6,15.2,7.6s2.7-3.8,5.2-3.5a47.2,47.2,0,0,1,9,2.9A3.6,3.6,0,0,1,31,11.5s-1.4,4.3-1.9,6.5c0,0,7.6-11.7,12.1-15.7S47.6.8,47.6.8Z"/><path class="cls-2" d="M71.9,13.5l-3,4.4a31.5,31.5,0,0,1,6.1-.6c2.6-.2,5.2.3,5.8,1.9a8.1,8.1,0,0,1-.4,6.3c-7.4-.8-18.2,2.6-18.2,2.6l-1.6,3.8a38.9,38.9,0,0,1,8.3-1.4c4.4-.3,6.3,3.8,7.2,6.7S73,40.5,73,40.5s-8.4-.1-13.5,1.5-5.9,0-5.9,0a25.8,25.8,0,0,1-3.3-4.1,6.6,6.6,0,0,1,0-7.6L61.4,10.8l.3-1.2s-2.1-1.3-1.3-5c.5-1.4,2.3-1.4,2.3-1.4,1.6-.4,15.7-2,18.4-2s4.7.8,6,3.3a14.3,14.3,0,0,1,1.2,5.8l-15,1.2Z"/><path class="cls-3" d="M104.7,8.1c-.9,6.2-12.3,22.6-12.3,22.6s1.4-1,7.2-1.5,7.1,5.1,7.1,5.1c-4.6,2.6-9.3,5-14.2,7.2S78.5,42.1,82,29,97.2,1.9,97.2,1.9A2.4,2.4,0,0,1,100,1l3.2,2.3C105.3,5.9,104.7,8.1,104.7,8.1Z"/><path class="cls-4" d="M111.8,19.1c1.8-3.3,6.3-12.7,8-15.5s3.7-1.9,3.7-1.9a17.4,17.4,0,0,1,3.3,1.8c2,1.2.7,4.8.7,4.8C125,16.7,111,42.5,111,42.5a5.8,5.8,0,0,1-3.4-3.3C104.9,31.7,111.8,19.1,111.8,19.1Z"/><path class="cls-5" d="M124.1,23.9c5.4,11.7,16.1,10.3,17.4,10s3.7-3.1,0-4.8-15.8-2.9-15.1-11.6,8-14.1,14.5-15.9,14.6,1.5,16.5,7.3-8.2,12-8.2,12a6.9,6.9,0,0,1-5.6-5c-1.4-4.6,3.6-7.9,3.6-7.9s-8.4,2.4-10.8,7.1,9.4,6.6,13.1,8.9,4.9,10.6-2.1,15.1-20.6,6.4-24-4.8C123.4,34.3,121.6,27.1,124.1,23.9Z"/><path class="cls-6" d="M154.2,23.9c5.4,11.7,16.1,10.3,17.4,10s3.7-3.1,0-4.8-15.8-2.9-15.2-11.6S164.5,3.4,171,1.6s14.6,1.5,16.5,7.3-8.3,12-8.3,12-3.9-.3-5.5-5S177.3,8,177.3,8s-8.5,2.4-10.8,7.1,9.4,6.6,13.1,8.9,4.8,10.6-2.1,15.1-20.7,6.4-24-4.8C153.5,34.3,151.6,27.1,154.2,23.9Z"/><path class="cls-7" d="M219.4,10.1c-1.5,4.2-2.8,8.6-3.9,13,0,0,1.3,0,1.3.8a41,41,0,0,1-.6,4.9c-.3.7-2.2,1-2.2,1-1,5.3-1.7,9.6-2,10.9-.6,2.9-2.5,1.8-2.5,1.8L206,40.2a4.4,4.4,0,0,1-1.7-3.1,29.8,29.8,0,0,1,.7-6l-11.9,1.7c-2.4,3.8-3.5,5.4-4.9,7.9s-3.1,1-3.1,1l-3.1-3c-1.8-2.1.6-5.9.6-5.9C187.7,21.5,204.3,3,204.3,3a3.7,3.7,0,0,1,4.1-1.6s7.6,2.3,10.2,4.1S219.4,10.1,219.4,10.1Zm-9.8-.5s-7.2,7.5-10,13.5c0,0,3.6-.5,6.8-.6,0,0,1.6-8,3.2-12.9Z"/><path class="cls-8" d="M260.6,13.4s-7.8,29.8-21.2,28.8c-10.2-.8-8.5-11-7.3-11s2.4,3.6,5.3,2.7,5.1-6.5,10.1-18.2l5.3-12.6a3.3,3.3,0,0,1,3.3-1.7,8.7,8.7,0,0,1,4.5.9s1.3.7,1.2,3.7A30.9,30.9,0,0,1,260.6,13.4Z"/><path class="cls-9" d="M291.1,10.1a97.3,97.3,0,0,0-3.9,13s1.3,0,1.3.8a41,41,0,0,1-.6,4.9c-.3.7-2.2,1-2.2,1-1,5.3-1.7,9.6-2,10.9-.6,2.9-2.5,1.8-2.5,1.8l-3.6-2.3a4.7,4.7,0,0,1-1.6-3.1,29.8,29.8,0,0,1,.7-6l-11.9,1.7c-2.4,3.8-3.5,5.4-4.9,7.9s-3.1,1-3.1,1l-3.1-3c-1.8-2.1.6-5.9.6-5.9C259.4,21.5,276,3,276,3a3.7,3.7,0,0,1,4.1-1.6s7.5,2.3,10.2,4.1S291.1,10.1,291.1,10.1Zm-9.9-.5s-7.1,7.5-9.9,13.5c0,0,3.5-.5,6.8-.6C278.9,18.1,280,13.8,281.2,9.6Z"/><path class="cls-10" d="M309.6,13.5l-2.9,4.4a31.5,31.5,0,0,1,6.1-.6c2.6-.2,5.2.3,5.7,1.9a7.7,7.7,0,0,1-.4,6.3c-7.3-.8-18.1,2.6-18.1,2.6l-1.6,3.8a33.5,33.5,0,0,1,8.3-1.4c4.4-.3,6.2,3.8,7.2,6.7s-3.1,3.3-3.1,3.3-8.4-.1-13.6,1.5-5.9,0-5.9,0a42.3,42.3,0,0,1-3.3-4.1,7,7,0,0,1,0-7.6l11.2-19.5.3-1.2s-2.1-1.3-1.3-5a2.4,2.4,0,0,1,2.2-1.4c1.6-.4,15.8-2,18.4-2s4.8.8,6,3.3a11.7,11.7,0,0,1,1.2,5.8l-14.9,1.2Z"/><path class="cls-11" d="M337.3,4.7l3.7.5s5.3.9,4.1,8.7-.5,10.7-.5,10.7c1.6-4.3,10-21.5,11.7-23.5a2.8,2.8,0,0,1,3.6-.7l4.4,2.1a2.4,2.4,0,0,1,1.3,2.9c-5.6,11.2-11.7,22.2-18.4,32.8-2,3.1-4.6,1.7-4.6,1.7s-1.4-.2-5.5-3.6-2.1-15-2.1-15c-6.6,15.9-10.5,23-10.5,23s-7.1-2.4-4.9-10.7S330.7,8.4,330.7,8.4A6.5,6.5,0,0,1,337.3,4.7Z"/></g></g></g></g></svg>